<?xml version="1.0" standalone="no"?>
<!DOCTYPE svg PUBLIC "-//W3C//DTD SVG 20010904//EN"
 "http://www.w3.org/TR/2001/REC-SVG-20010904/DTD/svg10.dtd">
<svg version="1.0" xmlns="http://www.w3.org/2000/svg"
 width="1080.000000pt" height="1280.000000pt" viewBox="0 0 1080.000000 1280.000000"
 preserveAspectRatio="xMidYMid meet">
<g transform="translate(0.000000,1280.000000) scale(0.100000,-0.100000)"
fill="#000000" stroke="none">
<path d="M6450 12790 c-274 -33 -450 -160 -630 -455 -57 -93 -220 -409 -265
-515 -79 -182 -106 -271 -116 -375 -29 -308 -169 -808 -366 -1304 -88 -223
-165 -382 -318 -656 -239 -429 -327 -627 -572 -1300 -218 -598 -259 -702 -300
-755 -65 -85 -280 -316 -503 -540 -249 -250 -404 -392 -460 -420 -56 -28 -235
-86 -410 -131 -130 -34 -176 -41 -285 -46 -115 -4 -144 -2 -248 21 -195 43
-311 88 -442 172 -100 63 -249 190 -357 302 -85 89 -113 126 -146 194 -56 115
-67 175 -65 353 2 160 18 280 89 645 l38 195 0 285 c1 492 -18 556 -360 1165
-144 257 -240 492 -286 697 -26 121 -32 361 -10 463 47 218 215 577 324 691
19 21 31 46 35 74 25 183 -249 -125 -402 -453 -121 -260 -174 -500 -162 -736
11 -202 45 -360 148 -676 142 -439 173 -581 173 -810 0 -232 -21 -321 -181
-745 -47 -124 -115 -310 -153 -415 -244 -683 -261 -820 -159 -1241 102 -421
285 -795 548 -1124 195 -244 324 -366 732 -692 253 -202 376 -306 574 -483
170 -152 369 -291 539 -377 176 -88 256 -151 256 -199 0 -38 -52 -105 -179
-229 -59 -58 -130 -138 -158 -177 -52 -74 -61 -94 -157 -338 -30 -77 -107
-259 -171 -405 -189 -432 -191 -443 -205 -1000 -15 -633 -18 -650 -116 -797
-90 -135 -99 -169 -99 -385 0 -164 6 -208 23 -182 19 29 54 35 160 28 98 -6
112 -5 149 15 23 11 45 26 49 32 3 6 27 24 52 40 87 55 155 37 262 -66 65 -63
100 -75 224 -75 l105 0 21 -30 c41 -57 77 -35 90 57 17 120 25 122 219 56 166
-56 287 -23 320 87 6 21 16 42 21 45 5 3 36 -19 70 -50 78 -72 90 -72 90 3 0
76 -34 148 -102 214 -109 106 -229 163 -379 179 -68 7 -120 18 -149 32 -94 46
-217 247 -227 371 -7 78 2 83 47 26 37 -46 50 -50 50 -14 0 70 -51 224 -150
449 -44 100 -53 132 -57 196 -5 62 -2 82 15 115 38 72 203 227 421 392 235
179 429 297 536 327 197 56 335 191 490 480 62 115 126 214 156 242 37 34 83
49 214 72 229 41 311 73 790 315 428 216 587 288 710 321 33 9 134 20 225 25
187 10 314 26 581 75 365 67 831 180 910 220 26 14 29 14 38 -4 45 -83 89
-746 62 -921 -6 -41 -38 -154 -71 -251 -71 -211 -81 -252 -81 -340 0 -85 15
-120 86 -200 81 -90 85 -103 82 -266 -2 -134 -1 -140 27 -196 15 -32 35 -61
43 -64 8 -3 31 13 58 40 80 84 332 187 456 187 59 0 157 -62 324 -203 95 -81
164 -120 238 -136 66 -15 293 -31 442 -31 179 0 234 14 411 104 82 41 174 82
204 90 68 19 204 36 290 36 178 1 340 73 340 153 0 21 10 39 35 62 56 54 90
60 225 43 42 -5 39 36 -5 77 -51 49 -141 74 -315 90 -157 14 -209 29 -235 68
-22 35 -11 71 38 117 40 39 151 100 181 100 29 0 56 20 56 40 0 74 -267 63
-505 -20 -47 -17 -153 -62 -234 -100 -82 -39 -161 -70 -175 -70 -30 0 -54 32
-62 82 -8 47 17 66 110 82 42 7 80 16 84 20 11 12 -21 59 -58 84 -31 21 -44
23 -111 20 -101 -6 -186 -46 -373 -177 -183 -128 -175 -124 -225 -106 -131 46
-458 317 -478 395 -9 36 25 161 142 520 128 390 164 510 214 720 54 224 88
410 101 563 15 175 6 217 -65 316 -131 182 -523 565 -775 756 -95 73 -386 245
-618 365 l-202 105 0 420 c0 672 -22 998 -86 1305 -31 150 -41 230 -30 230 3
0 42 -12 88 -26 120 -38 164 -32 306 42 107 56 117 59 196 62 70 3 93 0 142
-20 82 -33 159 -86 271 -187 177 -159 254 -216 279 -207 18 7 18 72 0 193 -8
51 -12 101 -9 112 6 23 56 41 114 41 19 0 44 6 55 14 19 14 18 15 -6 41 -33
35 -74 55 -195 95 -55 18 -174 62 -265 97 -210 82 -258 87 -440 48 -257 -54
-281 -58 -321 -46 -50 15 -135 86 -196 163 -64 80 -81 115 -94 186 -14 78 -45
171 -91 272 -59 128 -88 251 -99 420 -13 204 -27 337 -50 474 -25 151 -39 297
-29 315 10 19 87 -79 261 -334 154 -226 258 -363 337 -442 39 -39 75 -61 158
-97 199 -87 309 -103 379 -55 61 43 165 187 196 273 13 35 12 38 -10 55 -22
17 -23 23 -17 71 l7 53 -38 -6 c-21 -4 -51 -10 -68 -13 l-30 -7 28 34 c59 72
72 150 41 243 -22 65 -107 154 -186 196 -100 52 -110 65 -102 127 l6 52 -60
56 c-130 120 -153 275 -41 275 19 0 49 -9 68 -21 30 -18 33 -24 28 -55 -5 -32
-3 -35 30 -49 l35 -15 -7 -55 -6 -55 30 6 c28 6 32 3 42 -26 11 -31 13 -32 63
-28 l51 3 0 -43 c0 -26 6 -46 14 -51 8 -5 63 -7 121 -4 126 7 129 5 104 -89
-8 -33 -13 -63 -9 -66 3 -3 18 6 33 20 36 34 93 68 115 68 20 0 22 -19 5 -55
-15 -34 -6 -40 43 -26 54 16 64 6 48 -48 -7 -23 -9 -44 -6 -47 3 -4 36 8 73
25 77 36 99 38 116 11 19 -31 57 -25 156 25 199 100 362 313 362 475 0 94 -57
227 -170 399 -84 129 -152 211 -293 360 -230 242 -323 361 -406 520 -93 176
-147 215 -302 216 -111 1 -120 5 -244 114 -95 84 -186 137 -268 156 -96 22
-143 39 -260 94 -119 56 -194 77 -327 91 -108 11 -354 11 -450 0z"/>
</g>
</svg>
